Coordinates
version=1
nRows=10
nColumns=22
inDegrees=yes

Units are S.I. units (second, meters, Newtons, ...)
If the header above contains a line with 'inDegrees', this indicates whether rotational values are in degrees (yes) or radians (no).

endheader
time	pelvis_tilt	pelvis_list	pelvis_rotation	pelvis_tx	pelvis_ty	pelvis_tz	hip_flexion_r	hip_adduction_r	hip_rotation_r	knee_angle_r	ankle_angle_r	subtalar_angle_r	hip_flexion_l	hip_adduction_l	hip_rotation_l	knee_angle_l	ankle_angle_l	subtalar_angle_l	lumbar_extension	lumbar_bending	lumbar_rotation
      4.42000000	      3.55244357	     -2.18930960	      1.98248207	     -1.07442109	      0.91716254	     -0.02447455	    -11.38641499	      7.20697441	     -5.95141734	    -18.85172582	     22.86230434	     -6.23257935	     28.78651985	     -3.33317691	     -7.60616578	    -34.83584807	     18.70048823	    -16.18168234	    -17.52805976	      1.58394802	     -3.59463576
      4.43000000	      3.64768064	     -2.17463345	      1.77387534	     -1.08083465	      0.91846992	     -0.02362532	    -11.19610519	      7.20637057	     -5.83564537	    -18.55487904	     22.88187293	     -6.54590347	     28.63488777	     -3.51004153	     -7.01217386	    -36.40320313	     18.80359498	    -16.79879112	    -17.56023090	      1.49364106	     -3.49723094
      4.44000000	      3.72355093	     -2.15385497	      1.54118564	     -1.08708339	      0.91975341	     -0.02279120	    -10.97547475	      7.18953274	     -5.68479202	    -18.29901067	     22.88716735	     -6.84554496	     28.45664214	     -3.68368609	     -6.47439694	    -37.94105857	     18.94212550	    -17.39164154	    -17.56392829	      1.39862436	     -3.41041875
      4.45000000	      3.78492538	     -2.14785044	      1.29697632	     -1.09317873	      0.92100423	     -0.02199293	    -10.72773871	      7.18184608	     -5.52071426	    -18.08499304	     22.82013795	     -7.08737114	     28.25040456	     -3.87165150	     -5.97723369	    -39.44394149	     19.11640905	    -17.87185454	    -17.54564345	      1.32877795	     -3.32169637
      4.46000000	      3.85051997	     -2.15424711	      1.06888171	     -1.09914993	      0.92223468	     -0.02125402	    -10.47228992	      7.19374821	     -5.32325173	    -17.91372890	     22.71042402	     -7.26984252	     27.99806915	     -4.05908403	     -5.49173052	    -40.89725381	     19.31447485	    -18.23445205	    -17.53316334	      1.28507343	     -3.29356078
      4.47000000	      3.88532948	     -2.15889988	      0.85742241	     -1.10495804	      0.92338252	     -0.02062933	    -10.16407162	      7.19128225	     -5.20954389	    -17.80179933	     22.59186690	     -7.50603824	     27.73782885	     -4.23138965	     -5.04453625	    -42.30093409	     19.50706590	    -18.68411218	    -17.47654958	      1.25395831	     -3.26507048
      4.48000000	      3.94092923	     -2.17680572	      0.68992701	     -1.11061732	      0.92452322	     -0.02013125	     -9.87810049	      7.21018576	     -5.09765308	    -17.70977824	     22.43464930	     -7.66048408	     27.41539912	     -4.39299606	     -4.59135210	    -43.64349780	     19.70800136	    -18.96047726	    -17.44058705	      1.26056139	     -3.31571541
      4.49000000	      4.00675654	     -2.19693267	      0.57268875	     -1.11611727	      0.92564341	     -0.01976891	     -9.60172736	      7.23526778	     -5.01576176	    -17.63957368	     22.25405949	     -7.75685870	     27.04035125	     -4.52850832	     -4.12804102	    -44.91480125	     19.91030902	    -19.10349538	    -17.40816045	      1.28429723	     -3.43901711
      4.50000000	      4.05169904	     -2.22590592	      0.49599487	     -1.12147321	      0.92668381	     -0.01959804	     -9.28907305	      7.26088203	     -4.98582677	    -17.61248719	     22.06322056	     -7.86887122	     26.65664280	     -4.63311381	     -3.63678640	    -46.12713516	     20.10377592	    -19.24081092	    -17.34389473	      1.34919511	     -3.58762384
      4.51000000	      4.13185600	     -2.25131074	      0.45604691	     -1.12665340	      0.92774558	     -0.01954919	     -9.01651842	      7.27795293	     -5.00858821	    -17.60338069	     21.89458502	     -7.92719224	     26.18867022	     -4.70989911	     -3.14390446	    -47.25684706	     20.30467611	    -19.25197657	    -17.31095070	      1.41861440	     -3.75889636
